# xmcd
#
# Track frame offsets:
#       150
#       13302
#       22984
#       34753
#       46938
#       57616
#       69901
#       84481
#       96780
#       110818
#       123308
#       135347
#       145914
#       158604
#       168513
#       178522
#       193498
#       203696
#       214242
#       226455
#       238107
#       247888
#       260800
#       269631
#
# Disc length: 3759 seconds
#
# Revision: 0
# Processed by: cddbd v1.5.2PL0 Copyright (c) Steve Scherf et al.
# Submitted via: WhereIsIt 2010.1026
#
DISCID=600ead18
DTITLE=Trompethits - CD1
DYEAR=1900
DGENRE=
TTITLE0=Wolgalied (Jeg Er Zigeüner)
TTITLE1=Gina (Fuldmånen Stille Sejler)
TTITLE2=Home Sweet Home
TTITLE3=GipsyTrumpet (Habe Mitlied Pojalei)
TTITLE4=Venetiansk Serenade (Kom Karina)
TTITLE5=Annie Laurie
TTITLE6=Warszawa Melodie
TTITLE7=La Golondrina
TTITLE8=Rockin' My Baby
TTITLE9=Edelweiss
TTITLE10=Kiss Me
TTITLE11=Pony Time
TTITLE12=Bavarian Brass
TTITLE13=Tralala Song (Jim Og Jeg)
TTITLE14=The Whistler And His Dog
TTITLE15=La Paloma
TTITLE16=Donau Brass (Donauwelle)
TTITLE17=Beer Barrell Polka (Hvor Er Min Kone)
TTITLE18=Spanish Delight
TTITLE19=The Girls Of Copenhagen
TTITLE20=Dark Eyes A Go Go (Sorte Øjne)
TTITLE21=Santa Lucia
TTITLE22=La Petite Tonkinoise (Jeg Har Vaeret På Vulkaner)
TTITLE23=Irish Beat (Sommerens Sidste Rose)
EXTD=
EXTT0=
EXTT1=
EXTT2=
EXTT3=
EXTT4=
EXTT5=
EXTT6=
EXTT7=
EXTT8=
EXTT9=
EXTT10=
EXTT11=
EXTT12=
EXTT13=
EXTT14=
EXTT15=
EXTT16=
EXTT17=
EXTT18=
EXTT19=
EXTT20=
EXTT21=
EXTT22=
EXTT23=
PLAYORDER=
